<svg width="1025" height="358" viewBox="0 0 1025 358" fill="none" xmlns="http://www.w3.org/2000/svg">
<path d="M127.466 218.93C124.408 225.69 121.028 233.819 117.325 243.316C113.623 252.813 109.599 262.713 105.253 273.015C100.907 283.317 96.2386 293.538 91.2485 303.679C86.4195 313.82 81.2685 322.915 75.7956 330.964C70.4836 338.851 64.9302 345.29 59.1354 350.28C53.5015 355.27 47.7066 357.765 41.7508 357.765C36.7608 357.765 32.6561 356.96 29.4367 355.35C26.2173 353.902 23.7223 351.97 21.9517 349.555C20.181 347.302 18.8933 344.807 18.0884 342.07C17.4446 339.173 17.1226 336.437 17.1226 333.861C17.1226 329.998 17.686 326.054 18.8128 322.03C20.1005 318.006 21.6297 314.303 23.4004 310.923L115.877 140.699C119.901 133.616 123.684 128.063 127.225 124.039C130.927 120.015 134.308 117.037 137.366 115.105C140.585 113.173 143.402 112.047 145.817 111.725C148.231 111.242 150.243 111 151.853 111C154.751 111 157.407 112.047 159.821 114.139C162.236 116.071 163.443 119.693 163.443 125.005C163.443 130.156 162.075 137.238 159.338 146.252C156.602 155.267 151.531 166.856 144.127 181.022C156.682 180.056 169.077 177.963 181.31 174.744C193.544 171.364 204.49 166.776 214.148 160.981C223.967 155.186 231.854 148.184 237.81 139.975C243.766 131.604 246.744 121.946 246.744 111C246.744 101.342 245.134 92.1671 241.915 83.4748C238.857 74.6216 234.269 66.8951 228.152 60.2954C222.196 53.5347 214.792 48.2228 205.938 44.3595C197.085 40.3353 186.864 38.3232 175.274 38.3232C159.499 38.3232 145.897 39.8524 134.469 42.9108C123.201 45.8082 113.462 49.6715 105.253 54.5005C97.2044 59.3296 90.4437 64.883 84.9708 71.1607C79.4979 77.4385 74.7493 83.7968 70.7251 90.2355C66.8618 96.6742 63.401 103.032 60.3426 109.31C57.2842 115.588 54.0649 121.141 50.6845 125.97C47.4652 130.8 43.7629 134.743 39.5777 137.802C35.3925 140.699 30.2415 142.148 24.1248 142.148C16.2373 142.148 10.362 140.136 6.49872 136.111C2.79645 132.087 0.945312 126.373 0.945312 118.968C0.945312 111.564 2.95742 103.515 6.98162 94.8231C11.0058 85.9698 16.7202 77.1166 24.1248 68.2633C31.5293 59.4101 40.463 50.9592 50.926 42.9108C61.5499 34.7014 73.4615 27.4578 86.6609 21.1801C99.8604 14.9023 114.187 9.91229 129.639 6.21002C145.253 2.34678 161.672 0.415161 178.896 0.415161C194.993 0.415161 210.446 2.7492 225.255 7.41728C240.225 11.9244 253.424 18.7656 264.853 27.9407C276.282 37.1159 285.376 48.6252 292.137 62.4685C299.059 76.1508 302.519 92.2476 302.519 110.759C302.519 127.661 298.415 142.953 290.205 156.635C282.157 170.156 271.211 181.665 257.368 191.163C243.686 200.499 227.83 207.742 209.802 212.893C191.773 217.883 172.779 220.378 152.819 220.378C148.634 220.378 144.368 220.298 140.022 220.137C135.837 219.976 131.652 219.574 127.466 218.93Z" fill="#537FE7"/>
<path d="M348.878 215.549C341.313 215.549 333.989 217.481 326.906 221.344C319.985 225.046 313.787 230.036 308.314 236.314C303.002 242.431 298.737 249.433 295.517 257.321C292.298 265.047 290.688 273.015 290.688 281.224C290.688 284.283 290.93 287.663 291.413 291.365C291.896 294.907 292.861 298.287 294.31 301.506C295.92 304.565 298.173 307.14 301.071 309.233C303.968 311.325 307.831 312.372 312.66 312.372C320.065 312.372 327.228 310.44 334.15 306.577C341.232 302.553 347.51 297.402 352.983 291.124C358.456 284.685 362.802 277.442 366.021 269.393C369.241 261.345 370.851 253.216 370.851 245.007C370.851 241.787 370.609 238.487 370.126 235.107C369.804 231.566 368.838 228.346 367.229 225.449C365.78 222.551 363.607 220.217 360.71 218.447C357.812 216.515 353.868 215.549 348.878 215.549ZM361.434 173.054C367.551 173.054 374.07 173.859 380.992 175.468C388.074 177.078 394.593 179.814 400.549 183.678C406.505 187.541 411.415 192.692 415.278 199.131C419.302 205.408 421.314 213.215 421.314 222.551C421.314 227.38 420.67 232.934 419.382 239.212C418.095 245.328 416.163 251.767 413.588 258.528C415.197 260.459 417.048 261.828 419.141 262.633C421.234 263.437 423.487 263.84 425.902 263.84C429.282 263.84 432.984 262.874 437.009 260.942C441.194 259.011 445.459 256.516 449.805 253.457C454.152 250.399 458.498 246.938 462.844 243.075C467.19 239.212 471.295 235.348 475.158 231.485C479.021 227.622 482.482 224 485.54 220.62C488.76 217.079 491.416 214.101 493.508 211.686C494.635 210.559 496.003 209.996 497.613 209.996C499.867 209.996 501.879 211.203 503.649 213.618C505.42 215.871 506.305 219.091 506.305 223.276C506.305 227.461 505.018 232.29 502.442 237.763C500.028 243.236 495.44 248.95 488.679 254.906C484.816 259.091 480.389 263.92 475.399 269.393C470.409 274.866 465.097 280.017 459.464 284.846C453.83 289.675 447.954 293.78 441.838 297.16C435.721 300.541 429.604 302.231 423.487 302.231C419.302 302.231 415.197 301.587 411.173 300.299C407.31 299.011 403.366 296.919 399.342 294.021C393.547 303.036 386.947 311.245 379.543 318.65C372.138 326.054 363.848 332.412 354.673 337.724C345.659 343.036 335.84 347.141 325.216 350.038C314.753 353.097 303.566 354.626 291.654 354.626C287.147 354.626 281.916 353.741 275.96 351.97C270.004 350.199 264.289 347.302 258.817 343.278C253.505 339.093 248.998 333.7 245.295 327.1C241.593 320.501 239.742 312.452 239.742 302.955C239.742 296.516 240.788 288.79 242.881 279.776C244.973 270.761 248.112 261.506 252.297 252.009C256.643 242.351 262.036 232.853 268.475 223.517C275.074 214.02 282.881 205.569 291.896 198.165C300.91 190.599 311.212 184.563 322.801 180.056C334.391 175.388 347.269 173.054 361.434 173.054Z" fill="#537FE7"/>
<path d="M501.718 278.81C499.947 282.512 498.176 286.858 496.406 291.848C494.796 296.677 493.991 301.024 493.991 304.887C493.991 307.301 494.474 309.233 495.44 310.682C496.406 312.13 498.257 312.855 500.993 312.855C504.374 312.855 508.559 311.889 513.549 309.957C518.7 307.865 524.173 305.209 529.968 301.989C535.924 298.609 542.04 294.826 548.318 290.641C554.757 286.295 561.115 281.868 567.393 277.361C573.671 272.693 579.626 268.105 585.26 263.598C591.055 258.93 596.206 254.665 600.713 250.801C602.001 249.675 603.53 248.87 605.301 248.387C607.072 247.904 608.601 247.663 609.888 247.663C613.108 247.663 615.764 248.789 617.856 251.043C619.949 253.296 620.995 256.274 620.995 259.977C620.995 263.357 619.868 267.14 617.615 271.325C615.361 275.51 611.418 279.615 605.784 283.639C595.482 293.136 585.099 302.15 574.636 310.682C564.173 319.213 553.711 326.778 543.248 333.378C532.946 339.817 522.644 344.968 512.342 348.831C502.201 352.694 492.301 354.626 482.643 354.626C476.043 354.626 470.49 353.741 465.983 351.97C461.637 350.199 458.095 347.785 455.359 344.726C452.783 341.668 450.932 338.046 449.805 333.861C448.679 329.676 448.115 325.249 448.115 320.581C448.115 312.694 449.242 304.645 451.496 296.436C453.91 288.066 456.727 280.42 459.946 273.498C465.58 260.942 471.295 248.467 477.09 236.073C482.884 223.678 488.196 212.33 493.025 202.028L566.186 46.2911C569.083 40.0134 572.946 35.5867 577.775 33.0112C582.765 30.4358 587.755 29.148 592.745 29.148C597.735 29.148 602.242 30.5162 606.267 33.2527C610.452 35.9892 612.544 40.4158 612.544 46.5326C612.544 49.43 611.82 52.4884 610.371 55.7078C609.084 58.9271 607.393 62.388 605.301 66.0902C601.277 73.6557 596.448 82.9114 590.814 93.8573C585.341 104.803 579.385 116.715 572.946 129.592C566.668 142.47 560.149 155.911 553.389 169.915C546.789 183.758 540.27 197.279 533.831 210.479C527.553 223.678 521.597 236.234 515.963 248.145C510.491 259.896 505.742 270.118 501.718 278.81Z" fill="#537FE7"/>
<path d="M629.205 278.81C627.434 282.512 625.663 286.858 623.893 291.848C622.283 296.677 621.478 301.024 621.478 304.887C621.478 307.301 621.961 309.233 622.927 310.682C623.893 312.13 625.744 312.855 628.48 312.855C631.861 312.855 636.046 311.889 641.036 309.957C646.187 307.865 651.66 305.209 657.455 301.989C663.41 298.609 669.527 294.826 675.805 290.641C682.244 286.295 688.602 281.868 694.88 277.361C701.157 272.693 707.113 268.105 712.747 263.598C718.542 258.93 723.693 254.665 728.2 250.801C729.488 249.675 731.017 248.87 732.788 248.387C734.558 247.904 736.088 247.663 737.375 247.663C740.595 247.663 743.251 248.789 745.343 251.043C747.436 253.296 748.482 256.274 748.482 259.977C748.482 263.357 747.355 267.14 745.102 271.325C742.848 275.51 738.905 279.615 733.271 283.639C722.969 293.136 712.586 302.15 702.123 310.682C691.66 319.213 681.197 326.778 670.734 333.378C660.433 339.817 650.131 344.968 639.829 348.831C629.688 352.694 619.788 354.626 610.13 354.626C603.53 354.626 597.977 353.741 593.47 351.97C589.124 350.199 585.582 347.785 582.846 344.726C580.27 341.668 578.419 338.046 577.292 333.861C576.166 329.676 575.602 325.249 575.602 320.581C575.602 312.694 576.729 304.645 578.983 296.436C581.397 288.066 584.214 280.42 587.433 273.498C593.067 260.942 598.782 248.467 604.576 236.073C610.371 223.678 615.683 212.33 620.512 202.028L693.672 46.2911C696.57 40.0134 700.433 35.5867 705.262 33.0112C710.252 30.4358 715.242 29.148 720.232 29.148C725.222 29.148 729.729 30.5162 733.754 33.2527C737.939 35.9892 740.031 40.4158 740.031 46.5326C740.031 49.43 739.307 52.4884 737.858 55.7078C736.571 58.9271 734.88 62.388 732.788 66.0902C728.764 73.6557 723.935 82.9114 718.301 93.8573C712.828 104.803 706.872 116.715 700.433 129.592C694.155 142.47 687.636 155.911 680.876 169.915C674.276 183.758 667.757 197.279 661.318 210.479C655.04 223.678 649.084 236.234 643.45 248.145C637.977 259.896 633.229 270.118 629.205 278.81Z" fill="#537FE7"/>
<path d="M774.318 139.733C774.318 136.031 774.961 132.248 776.249 128.385C777.698 124.361 779.791 120.739 782.527 117.52C785.263 114.3 788.644 111.644 792.668 109.552C796.853 107.459 801.763 106.413 807.397 106.413C816.733 106.413 823.252 108.264 826.954 111.966C830.657 115.508 832.508 120.015 832.508 125.488C832.508 128.546 831.864 131.926 830.576 135.629C829.449 139.331 827.679 142.792 825.264 146.011C822.85 149.069 819.711 151.645 815.847 153.737C811.984 155.83 807.397 156.876 802.085 156.876C792.105 156.876 785.102 155.347 781.078 152.289C777.054 149.069 774.801 144.884 774.318 139.733ZM747.758 194.06C750.494 189.553 753.633 186.334 757.174 184.402C760.716 182.47 764.338 181.505 768.04 181.505C774.157 181.505 779.388 183.517 783.734 187.541C788.241 191.404 790.495 196.394 790.495 202.511C790.334 203.96 790.092 205.408 789.771 206.857C789.61 208.306 789.127 209.754 788.322 211.203C786.068 215.388 784.217 218.93 782.768 221.827C781.32 224.725 779.952 227.461 778.664 230.036C777.537 232.451 776.41 234.866 775.283 237.28C774.157 239.695 772.788 242.592 771.179 245.972C769.247 249.997 767.074 254.423 764.66 259.252C762.245 263.92 759.911 268.749 757.657 273.739C755.565 278.729 753.714 283.639 752.104 288.468C750.655 293.297 749.931 297.724 749.931 301.748C749.931 306.094 750.977 308.991 753.07 310.44C755.323 311.728 758.462 312.372 762.486 312.372C766.994 312.372 771.662 311.406 776.491 309.474C781.481 307.543 786.471 305.048 791.461 301.989C796.451 298.931 801.36 295.47 806.189 291.607C811.018 287.583 815.526 283.558 819.711 279.534C824.057 275.51 828.001 271.647 831.542 267.945C835.244 264.242 838.302 260.942 840.717 258.045C843.936 254.987 847.156 253.457 850.375 253.457C853.273 253.457 855.607 254.745 857.377 257.321C859.309 259.896 860.275 263.196 860.275 267.22C860.275 270.922 859.309 274.866 857.377 279.051C855.607 283.237 852.629 287.18 848.444 290.883C840.234 299.253 831.864 307.301 823.332 315.028C814.801 322.593 806.028 329.354 797.014 335.31C788.161 341.105 779.227 345.773 770.213 349.314C761.199 352.855 752.104 354.626 742.929 354.626C729.89 354.626 719.588 351.326 712.023 344.726C704.618 337.966 700.916 327.503 700.916 313.338C700.916 305.933 701.962 298.689 704.055 291.607C706.147 284.524 708.643 277.683 711.54 271.083C714.437 264.323 717.496 257.884 720.715 251.767C723.935 245.489 726.671 239.534 728.925 233.9C729.729 231.807 731.098 228.588 733.029 224.242C735.122 219.895 737.295 215.469 739.548 210.962C742.124 205.65 744.86 200.016 747.758 194.06Z" fill="#537FE7"/>
<path d="M903.978 214.342C898.022 225.932 892.388 237.28 887.076 248.387C881.764 259.333 876.774 269.474 872.106 278.81C870.174 282.673 868.243 287.18 866.311 292.331C864.54 297.321 863.655 301.748 863.655 305.611C863.655 307.865 864.138 309.635 865.104 310.923C866.231 312.211 868.001 312.855 870.416 312.855C873.796 312.855 878.062 311.889 883.213 309.957C888.364 307.865 893.917 305.209 899.873 301.989C905.829 298.609 912.107 294.826 918.706 290.641C925.306 286.295 931.745 281.868 938.022 277.361C944.461 272.693 950.578 268.105 956.373 263.598C962.168 258.93 967.319 254.665 971.826 250.801C974.401 249.031 976.816 248.145 979.069 248.145C981.806 248.145 984.059 249.353 985.83 251.767C987.601 254.182 988.486 257.24 988.486 260.942C988.486 264.645 987.601 268.427 985.83 272.291C984.059 276.154 980.84 279.937 976.172 283.639C965.709 293.136 955.085 302.15 944.3 310.682C933.676 319.213 923.052 326.778 912.428 333.378C901.966 339.817 891.583 344.968 881.281 348.831C870.979 352.694 860.999 354.626 851.341 354.626C844.902 354.626 839.51 353.741 835.164 351.97C830.818 350.36 827.276 348.107 824.54 345.209C821.964 342.151 820.113 338.69 818.986 334.827C817.86 330.803 817.296 326.537 817.296 322.03C817.296 313.981 818.664 305.611 821.401 296.919C824.137 288.227 827.196 280.42 830.576 273.498C835.405 263.518 840.154 253.618 844.822 243.799C849.651 233.98 854.319 224.564 858.826 215.549H848.444C839.429 215.549 833.232 214.101 829.852 211.203C826.471 208.306 824.781 205.006 824.781 201.304C824.781 199.694 825.264 197.762 826.23 195.509C827.357 193.094 828.886 190.921 830.818 188.99C832.91 186.897 835.405 185.126 838.303 183.678C841.2 182.229 844.5 181.505 848.202 181.505H874.279L925.225 80.3359C928.445 74.2191 932.389 69.873 937.057 67.2975C941.886 64.561 946.876 63.1928 952.027 63.1928C956.856 63.1928 961.282 64.4806 965.307 67.056C969.331 69.6315 971.343 73.8972 971.343 79.853C971.343 82.9114 970.619 86.0503 969.17 89.2697C967.882 92.3281 966.111 95.9499 963.858 100.135C962.409 102.872 960.639 106.171 958.546 110.035C956.453 113.737 954.2 117.761 951.785 122.107C949.532 126.292 947.117 130.719 944.542 135.387C942.127 140.055 939.713 144.562 937.298 148.908C931.825 159.21 926.03 170.076 919.913 181.505H998.627C1002.49 181.505 1006.03 181.746 1009.25 182.229C1012.47 182.551 1015.21 183.356 1017.46 184.643C1019.87 185.77 1021.73 187.38 1023.01 189.472C1024.3 191.565 1024.95 194.382 1024.95 197.923C1024.95 199.694 1024.62 201.465 1023.98 203.235C1023.5 205.006 1022.45 206.616 1020.84 208.064C1019.39 209.513 1017.3 210.72 1014.56 211.686C1011.99 212.652 1008.61 213.296 1004.42 213.618L903.978 214.342Z" fill="#537FE7"/>
</svg>
